<mxfile host="app.diagrams.net" modified="2021-05-21T00:48:10.048Z" agent="5.0 (Windows)" etag="ba92g_kXmmQX7wS92bj6" version="14.6.13" type="github" pages="2">
  <diagram id="sSqSU2CnWr-uc7SH-SRM" name="Page-1">
    <mxGraphModel dx="1059" dy="589" grid="1" gridSize="10" guides="1" tooltips="1" connect="1" arrows="1" fold="1" page="1" pageScale="1" pageWidth="827" pageHeight="1169" math="0" shadow="0">
      <root>
        <mxCell id="0" />
        <mxCell id="1" parent="0" />
        <mxCell id="wEKC9drdVz6LrzQ8t6Nu-1" value="" style="rounded=0;whiteSpace=wrap;html=1;" vertex="1" parent="1">
          <mxGeometry x="264" y="20" width="300" height="500" as="geometry" />
        </mxCell>
        <mxCell id="wEKC9drdVz6LrzQ8t6Nu-2" value="" style="verticalLabelPosition=bottom;html=1;verticalAlign=top;align=center;shape=mxgraph.floorplan.doorLeft;direction=west;" vertex="1" parent="1">
          <mxGeometry x="265.74" y="448" width="72" height="72" as="geometry" />
        </mxCell>
        <mxCell id="wEKC9drdVz6LrzQ8t6Nu-3" value="" style="verticalLabelPosition=bottom;html=1;verticalAlign=top;align=center;shape=mxgraph.floorplan.stairs;direction=south;" vertex="1" parent="1">
          <mxGeometry x="110" y="40" width="50" height="200" as="geometry" />
        </mxCell>
        <mxCell id="wEKC9drdVz6LrzQ8t6Nu-4" value="" style="verticalLabelPosition=bottom;html=1;verticalAlign=top;align=center;shape=mxgraph.floorplan.room;fillColor=#000000;rotation=90;" vertex="1" parent="1">
          <mxGeometry x="230" y="56" width="190" height="120" as="geometry" />
        </mxCell>
        <mxCell id="wEKC9drdVz6LrzQ8t6Nu-6" value="" style="verticalLabelPosition=bottom;html=1;verticalAlign=top;align=center;shape=mxgraph.floorplan.sink_1;direction=north;" vertex="1" parent="1">
          <mxGeometry x="274.5" y="136" width="36" height="45" as="geometry" />
        </mxCell>
        <mxCell id="wEKC9drdVz6LrzQ8t6Nu-7" value="" style="verticalLabelPosition=bottom;html=1;verticalAlign=top;align=center;shape=mxgraph.floorplan.toilet;direction=north;" vertex="1" parent="1">
          <mxGeometry x="274.5" y="101" width="59" height="30" as="geometry" />
        </mxCell>
        <mxCell id="wEKC9drdVz6LrzQ8t6Nu-13" value="" style="endArrow=none;html=1;" edge="1" parent="1">
          <mxGeometry width="50" height="50" relative="1" as="geometry">
            <mxPoint x="275" y="90" as="sourcePoint" />
            <mxPoint x="375" y="90" as="targetPoint" />
          </mxGeometry>
        </mxCell>
        <mxCell id="wEKC9drdVz6LrzQ8t6Nu-19" value="" style="rounded=0;whiteSpace=wrap;html=1;" vertex="1" parent="1">
          <mxGeometry x="600" y="20" width="300" height="500" as="geometry" />
        </mxCell>
        <mxCell id="wEKC9drdVz6LrzQ8t6Nu-18" value="" style="verticalLabelPosition=bottom;html=1;verticalAlign=top;align=center;shape=mxgraph.floorplan.bed_double;rotation=-90;" vertex="1" parent="1">
          <mxGeometry x="630" y="120" width="130" height="190" as="geometry" />
        </mxCell>
        <mxCell id="wEKC9drdVz6LrzQ8t6Nu-21" value="" style="verticalLabelPosition=bottom;html=1;verticalAlign=top;align=center;shape=mxgraph.floorplan.wall;fillColor=#000000;" vertex="1" parent="1">
          <mxGeometry x="600" y="101" width="90" height="10" as="geometry" />
        </mxCell>
        <mxCell id="wEKC9drdVz6LrzQ8t6Nu-22" value="" style="verticalLabelPosition=bottom;html=1;verticalAlign=top;align=center;shape=mxgraph.floorplan.doorPocket;dx=0.5;" vertex="1" parent="1">
          <mxGeometry x="698" y="101" width="104" height="10" as="geometry" />
        </mxCell>
        <mxCell id="wEKC9drdVz6LrzQ8t6Nu-23" value="" style="verticalLabelPosition=bottom;html=1;verticalAlign=top;align=center;shape=mxgraph.floorplan.wall;fillColor=#000000;" vertex="1" parent="1">
          <mxGeometry x="810" y="101" width="90" height="10" as="geometry" />
        </mxCell>
        <mxCell id="wEKC9drdVz6LrzQ8t6Nu-24" value="" style="verticalLabelPosition=bottom;html=1;verticalAlign=top;align=center;shape=mxgraph.floorplan.bookcase;rotation=-180;" vertex="1" parent="1">
          <mxGeometry x="600" y="310" width="140" height="36" as="geometry" />
        </mxCell>
        <mxCell id="wEKC9drdVz6LrzQ8t6Nu-25" value="" style="verticalLabelPosition=bottom;html=1;verticalAlign=top;align=center;shape=mxgraph.floorplan.stairs;direction=south;" vertex="1" parent="1">
          <mxGeometry x="800" y="220" width="100" height="300" as="geometry" />
        </mxCell>
        <mxCell id="wEKC9drdVz6LrzQ8t6Nu-27" value="" style="verticalLabelPosition=bottom;html=1;verticalAlign=top;align=center;shape=mxgraph.floorplan.sofa;rotation=90;" vertex="1" parent="1">
          <mxGeometry x="357.5" y="317.5" width="160" height="55" as="geometry" />
        </mxCell>
        <mxCell id="wEKC9drdVz6LrzQ8t6Nu-29" value="" style="verticalLabelPosition=bottom;html=1;verticalAlign=top;align=center;shape=mxgraph.floorplan.flat_tv;rotation=-90;" vertex="1" parent="1">
          <mxGeometry x="235.5" y="323" width="70" height="10" as="geometry" />
        </mxCell>
        <mxCell id="wEKC9drdVz6LrzQ8t6Nu-30" value="" style="verticalLabelPosition=bottom;html=1;verticalAlign=top;align=center;shape=mxgraph.floorplan.range_1;rotation=90;" vertex="1" parent="1">
          <mxGeometry x="494" y="20" width="70" height="70" as="geometry" />
        </mxCell>
        <mxCell id="wEKC9drdVz6LrzQ8t6Nu-31" value="" style="verticalLabelPosition=bottom;html=1;verticalAlign=top;align=center;shape=mxgraph.floorplan.sink_2;rotation=-90;" vertex="1" parent="1">
          <mxGeometry x="351.5" y="56" width="120" height="51" as="geometry" />
        </mxCell>
        <mxCell id="wEKC9drdVz6LrzQ8t6Nu-33" value="" style="verticalLabelPosition=bottom;html=1;verticalAlign=top;align=center;shape=mxgraph.floorplan.refrigerator;rotation=90;" vertex="1" parent="1">
          <mxGeometry x="494" y="114" width="70" height="62" as="geometry" />
        </mxCell>
        <mxCell id="wEKC9drdVz6LrzQ8t6Nu-34" value="" style="verticalLabelPosition=bottom;html=1;verticalAlign=top;align=center;shape=mxgraph.floorplan.elevator;" vertex="1" parent="1">
          <mxGeometry x="385.5" y="150" width="52" height="50" as="geometry" />
        </mxCell>
        <mxCell id="wEKC9drdVz6LrzQ8t6Nu-37" value="" style="verticalLabelPosition=bottom;html=1;verticalAlign=top;align=center;shape=mxgraph.floorplan.chair;shadow=0;rotation=180;" vertex="1" parent="1">
          <mxGeometry x="509" y="271" width="40" height="52" as="geometry" />
        </mxCell>
        <mxCell id="wEKC9drdVz6LrzQ8t6Nu-42" value="" style="verticalLabelPosition=bottom;html=1;verticalAlign=top;align=center;shape=mxgraph.floorplan.chair;shadow=0;rotation=0;" vertex="1" parent="1">
          <mxGeometry x="504" y="200" width="40" height="52" as="geometry" />
        </mxCell>
        <mxCell id="wEKC9drdVz6LrzQ8t6Nu-38" value="" style="shape=rect;shadow=0;" vertex="1" parent="1">
          <mxGeometry x="484" y="220" width="80" height="80" as="geometry" />
        </mxCell>
        <mxCell id="wEKC9drdVz6LrzQ8t6Nu-26" value="" style="verticalLabelPosition=bottom;html=1;verticalAlign=top;align=center;shape=mxgraph.floorplan.stairs;direction=south;opacity=30;" vertex="1" parent="1">
          <mxGeometry x="464" y="220" width="100" height="300" as="geometry" />
        </mxCell>
        <mxCell id="wEKC9drdVz6LrzQ8t6Nu-44" value="" style="verticalLabelPosition=bottom;html=1;verticalAlign=top;align=center;shape=mxgraph.floorplan.wall;fillColor=#000000;opacity=90;" vertex="1" parent="1">
          <mxGeometry x="600" y="346" width="200" height="10" as="geometry" />
        </mxCell>
        <mxCell id="wEKC9drdVz6LrzQ8t6Nu-47" value="" style="rounded=0;whiteSpace=wrap;html=1;fillColor=#dae8fc;strokeColor=#6c8ebf;rotation=0;" vertex="1" parent="1">
          <mxGeometry x="600" y="357" width="300" height="162" as="geometry" />
        </mxCell>
        <mxCell id="wEKC9drdVz6LrzQ8t6Nu-45" value="" style="verticalLabelPosition=bottom;html=1;verticalAlign=top;align=center;shape=mxgraph.floorplan.sofa;rotation=90;" vertex="1" parent="1">
          <mxGeometry x="735" y="362.5" width="70" height="55" as="geometry" />
        </mxCell>
        <mxCell id="wEKC9drdVz6LrzQ8t6Nu-46" value="" style="verticalLabelPosition=bottom;html=1;verticalAlign=top;align=center;shape=mxgraph.floorplan.doorLeft;direction=west;" vertex="1" parent="1">
          <mxGeometry x="600" y="447" width="72" height="72" as="geometry" />
        </mxCell>
      </root>
    </mxGraphModel>
  </diagram>
  <diagram id="SmTWU6yM8S_Qq2UdjuCm" name="Page-2">
    <mxGraphModel dx="3026" dy="2852" grid="1" gridSize="10" guides="1" tooltips="1" connect="1" arrows="1" fold="1" page="1" pageScale="1" pageWidth="827" pageHeight="1169" math="0" shadow="0">
      <root>
        <mxCell id="IdDyNV-LSEsOb_a6CBgl-0" />
        <mxCell id="IdDyNV-LSEsOb_a6CBgl-1" parent="IdDyNV-LSEsOb_a6CBgl-0" />
        <mxCell id="IdDyNV-LSEsOb_a6CBgl-2" value="" style="verticalLabelPosition=bottom;html=1;verticalAlign=top;align=center;shape=mxgraph.floorplan.room;fillColor=#000000;" vertex="1" parent="IdDyNV-LSEsOb_a6CBgl-1">
          <mxGeometry width="1000" height="1000" as="geometry" />
        </mxCell>
        <mxCell id="IdDyNV-LSEsOb_a6CBgl-4" value="" style="endArrow=classic;startArrow=classic;html=1;" edge="1" parent="IdDyNV-LSEsOb_a6CBgl-1" source="IdDyNV-LSEsOb_a6CBgl-2" target="IdDyNV-LSEsOb_a6CBgl-2">
          <mxGeometry width="50" height="50" relative="1" as="geometry">
            <mxPoint x="340" y="660" as="sourcePoint" />
            <mxPoint x="390" y="610" as="targetPoint" />
          </mxGeometry>
        </mxCell>
        <mxCell id="IdDyNV-LSEsOb_a6CBgl-8" value="" style="verticalLabelPosition=bottom;html=1;verticalAlign=top;align=center;shape=mxgraph.floorplan.wall;fillColor=#000000;" vertex="1" parent="IdDyNV-LSEsOb_a6CBgl-1">
          <mxGeometry x="450" y="790" width="530" height="10" as="geometry" />
        </mxCell>
        <mxCell id="IdDyNV-LSEsOb_a6CBgl-9" value="" style="verticalLabelPosition=bottom;html=1;verticalAlign=top;align=center;shape=mxgraph.floorplan.wall;rotation=90;" vertex="1" parent="IdDyNV-LSEsOb_a6CBgl-1">
          <mxGeometry x="690" y="890" width="180" height="10" as="geometry" />
        </mxCell>
        <mxCell id="IdDyNV-LSEsOb_a6CBgl-11" value="" style="verticalLabelPosition=bottom;html=1;verticalAlign=top;align=center;shape=mxgraph.floorplan.doorLeft;aspect=fixed;rotation=-90;" vertex="1" parent="IdDyNV-LSEsOb_a6CBgl-1">
          <mxGeometry x="790" y="805" width="80" height="85" as="geometry" />
        </mxCell>
        <mxCell id="IdDyNV-LSEsOb_a6CBgl-12" value="" style="verticalLabelPosition=bottom;html=1;verticalAlign=top;align=center;shape=mxgraph.floorplan.doorLeft;aspect=fixed;rotation=-90;" vertex="1" parent="IdDyNV-LSEsOb_a6CBgl-1">
          <mxGeometry x="790" y="900" width="80" height="85" as="geometry" />
        </mxCell>
        <mxCell id="IdDyNV-LSEsOb_a6CBgl-13" value="" style="verticalLabelPosition=bottom;html=1;verticalAlign=top;align=center;shape=mxgraph.floorplan.wall;fillColor=#000000;rotation=90;" vertex="1" parent="IdDyNV-LSEsOb_a6CBgl-1">
          <mxGeometry x="179" y="501" width="560" height="10" as="geometry" />
        </mxCell>
        <mxCell id="IdDyNV-LSEsOb_a6CBgl-15" value="" style="verticalLabelPosition=bottom;html=1;verticalAlign=top;align=center;shape=mxgraph.floorplan.wall;fillColor=#000000;rotation=90;" vertex="1" parent="IdDyNV-LSEsOb_a6CBgl-1">
          <mxGeometry x="397.5" y="252.5" width="505" height="10" as="geometry" />
        </mxCell>
        <mxCell id="IdDyNV-LSEsOb_a6CBgl-16" value="" style="verticalLabelPosition=bottom;html=1;verticalAlign=top;align=center;shape=mxgraph.floorplan.wall;fillColor=#000000;rotation=90;" vertex="1" parent="IdDyNV-LSEsOb_a6CBgl-1">
          <mxGeometry x="580" y="710" width="140" height="10" as="geometry" />
        </mxCell>
        <mxCell id="IdDyNV-LSEsOb_a6CBgl-17" value="" style="verticalLabelPosition=bottom;html=1;verticalAlign=top;align=center;shape=mxgraph.floorplan.wall;fillColor=#000000;direction=south;rotation=90;" vertex="1" parent="IdDyNV-LSEsOb_a6CBgl-1">
          <mxGeometry x="810" y="400" width="110" height="240" as="geometry" />
        </mxCell>
        <mxCell id="IdDyNV-LSEsOb_a6CBgl-18" value="" style="verticalLabelPosition=bottom;html=1;verticalAlign=top;align=center;shape=mxgraph.floorplan.wall;fillColor=#000000;" vertex="1" parent="IdDyNV-LSEsOb_a6CBgl-1">
          <mxGeometry x="453" y="213" width="130" height="10" as="geometry" />
        </mxCell>
        <mxCell id="IdDyNV-LSEsOb_a6CBgl-19" value="" style="verticalLabelPosition=bottom;html=1;verticalAlign=top;align=center;shape=mxgraph.floorplan.doorUneven;dx=0.5;" vertex="1" parent="IdDyNV-LSEsOb_a6CBgl-1">
          <mxGeometry x="150" y="1000" width="160" height="85" as="geometry" />
        </mxCell>
        <mxCell id="IdDyNV-LSEsOb_a6CBgl-20" value="" style="verticalLabelPosition=bottom;html=1;verticalAlign=top;align=center;shape=mxgraph.floorplan.doorUneven;dx=0.5;" vertex="1" parent="IdDyNV-LSEsOb_a6CBgl-1">
          <mxGeometry x="550" y="1000" width="160" height="85" as="geometry" />
        </mxCell>
        <mxCell id="IdDyNV-LSEsOb_a6CBgl-21" value="" style="verticalLabelPosition=bottom;html=1;verticalAlign=top;align=center;shape=mxgraph.floorplan.doorRight;rotation=90;" vertex="1" parent="IdDyNV-LSEsOb_a6CBgl-1">
          <mxGeometry x="280" y="-140" width="200" height="100" as="geometry" />
        </mxCell>
        <mxCell id="TOEvX5oDQGMF_Io_xG3n-2" value="" style="verticalLabelPosition=bottom;html=1;verticalAlign=top;align=center;shape=mxgraph.floorplan.range_1;rotation=90;" vertex="1" parent="IdDyNV-LSEsOb_a6CBgl-1">
          <mxGeometry x="865" y="575" width="160" height="62" as="geometry" />
        </mxCell>
        <mxCell id="TOEvX5oDQGMF_Io_xG3n-3" value="" style="verticalLabelPosition=bottom;html=1;verticalAlign=top;align=center;shape=mxgraph.floorplan.table;" vertex="1" parent="IdDyNV-LSEsOb_a6CBgl-1">
          <mxGeometry x="750" y="730" width="150" height="50" as="geometry" />
        </mxCell>
        <mxCell id="TOEvX5oDQGMF_Io_xG3n-4" value="" style="verticalLabelPosition=bottom;html=1;verticalAlign=top;align=center;shape=mxgraph.floorplan.sink_2;rotation=90;" vertex="1" parent="IdDyNV-LSEsOb_a6CBgl-1">
          <mxGeometry x="553.25" y="690.25" width="133" height="51.5" as="geometry" />
        </mxCell>
        <mxCell id="TOEvX5oDQGMF_Io_xG3n-5" value="" style="verticalLabelPosition=bottom;html=1;verticalAlign=top;align=center;shape=mxgraph.floorplan.sink_2;rotation=-90;" vertex="1" parent="IdDyNV-LSEsOb_a6CBgl-1">
          <mxGeometry x="617" y="689.25" width="133" height="51.5" as="geometry" />
        </mxCell>
        <mxCell id="TOEvX5oDQGMF_Io_xG3n-6" value="" style="verticalLabelPosition=bottom;html=1;verticalAlign=top;align=center;shape=mxgraph.floorplan.elevator;" vertex="1" parent="IdDyNV-LSEsOb_a6CBgl-1">
          <mxGeometry x="580" y="280" width="63.25" height="70" as="geometry" />
        </mxCell>
        <mxCell id="TOEvX5oDQGMF_Io_xG3n-9" value="" style="verticalLabelPosition=bottom;html=1;verticalAlign=top;align=center;shape=mxgraph.floorplan.elevator;" vertex="1" parent="IdDyNV-LSEsOb_a6CBgl-1">
          <mxGeometry x="580" y="350" width="63.25" height="70" as="geometry" />
        </mxCell>
        <mxCell id="TOEvX5oDQGMF_Io_xG3n-10" value="" style="verticalLabelPosition=bottom;html=1;verticalAlign=top;align=center;shape=mxgraph.floorplan.elevator;" vertex="1" parent="IdDyNV-LSEsOb_a6CBgl-1">
          <mxGeometry x="580" y="420" width="63.25" height="70" as="geometry" />
        </mxCell>
        <mxCell id="TOEvX5oDQGMF_Io_xG3n-11" value="" style="verticalLabelPosition=bottom;html=1;verticalAlign=top;align=center;shape=mxgraph.floorplan.elevator;" vertex="1" parent="IdDyNV-LSEsOb_a6CBgl-1">
          <mxGeometry x="780" y="530" width="63.25" height="70" as="geometry" />
        </mxCell>
        <mxCell id="TOEvX5oDQGMF_Io_xG3n-12" value="" style="verticalLabelPosition=bottom;html=1;verticalAlign=top;align=center;shape=mxgraph.floorplan.elevator;" vertex="1" parent="IdDyNV-LSEsOb_a6CBgl-1">
          <mxGeometry x="656.75" y="270" width="63.25" height="70" as="geometry" />
        </mxCell>
        <mxCell id="TOEvX5oDQGMF_Io_xG3n-13" value="" style="verticalLabelPosition=bottom;html=1;verticalAlign=top;align=center;shape=mxgraph.floorplan.elevator;" vertex="1" parent="IdDyNV-LSEsOb_a6CBgl-1">
          <mxGeometry x="660" y="192.5" width="63.25" height="70" as="geometry" />
        </mxCell>
        <mxCell id="TOEvX5oDQGMF_Io_xG3n-14" value="" style="verticalLabelPosition=bottom;html=1;verticalAlign=top;align=center;shape=mxgraph.floorplan.elevator;" vertex="1" parent="IdDyNV-LSEsOb_a6CBgl-1">
          <mxGeometry x="660" y="350" width="63.25" height="110" as="geometry" />
        </mxCell>
        <mxCell id="TOEvX5oDQGMF_Io_xG3n-15" value="" style="verticalLabelPosition=bottom;html=1;verticalAlign=top;align=center;shape=mxgraph.floorplan.bed_single;rotation=90;" vertex="1" parent="IdDyNV-LSEsOb_a6CBgl-1">
          <mxGeometry x="850" y="365" width="100" height="180" as="geometry" />
        </mxCell>
        <mxCell id="TOEvX5oDQGMF_Io_xG3n-21" value="" style="verticalLabelPosition=bottom;html=1;verticalAlign=top;align=center;shape=mxgraph.floorplan.chair;shadow=0;" vertex="1" parent="IdDyNV-LSEsOb_a6CBgl-1">
          <mxGeometry x="220" y="620" width="40" height="52" as="geometry" />
        </mxCell>
        <mxCell id="TOEvX5oDQGMF_Io_xG3n-22" value="" style="verticalLabelPosition=bottom;html=1;verticalAlign=top;align=center;shape=mxgraph.floorplan.chair;shadow=0;direction=west;" vertex="1" parent="IdDyNV-LSEsOb_a6CBgl-1">
          <mxGeometry x="220" y="708" width="40" height="52" as="geometry" />
        </mxCell>
        <mxCell id="TOEvX5oDQGMF_Io_xG3n-23" value="" style="verticalLabelPosition=bottom;html=1;verticalAlign=top;align=center;shape=mxgraph.floorplan.chair;shadow=0;direction=north;" vertex="1" parent="IdDyNV-LSEsOb_a6CBgl-1">
          <mxGeometry x="170" y="670" width="52" height="40" as="geometry" />
        </mxCell>
        <mxCell id="TOEvX5oDQGMF_Io_xG3n-24" value="" style="verticalLabelPosition=bottom;html=1;verticalAlign=top;align=center;shape=mxgraph.floorplan.chair;shadow=0;direction=south" vertex="1" parent="IdDyNV-LSEsOb_a6CBgl-1">
          <mxGeometry x="258" y="670" width="52" height="40" as="geometry" />
        </mxCell>
        <mxCell id="TOEvX5oDQGMF_Io_xG3n-25" value="" style="shape=rect;shadow=0;" vertex="1" parent="IdDyNV-LSEsOb_a6CBgl-1">
          <mxGeometry x="190" y="640" width="100" height="100" as="geometry" />
        </mxCell>
        <mxCell id="TOEvX5oDQGMF_Io_xG3n-36" value="" style="verticalLabelPosition=bottom;html=1;verticalAlign=top;align=center;shape=mxgraph.floorplan.chair;shadow=0;" vertex="1" parent="IdDyNV-LSEsOb_a6CBgl-1">
          <mxGeometry x="220" y="350" width="40" height="52" as="geometry" />
        </mxCell>
        <mxCell id="TOEvX5oDQGMF_Io_xG3n-37" value="" style="verticalLabelPosition=bottom;html=1;verticalAlign=top;align=center;shape=mxgraph.floorplan.chair;shadow=0;direction=west;" vertex="1" parent="IdDyNV-LSEsOb_a6CBgl-1">
          <mxGeometry x="220" y="438" width="40" height="52" as="geometry" />
        </mxCell>
        <mxCell id="TOEvX5oDQGMF_Io_xG3n-38" value="" style="verticalLabelPosition=bottom;html=1;verticalAlign=top;align=center;shape=mxgraph.floorplan.chair;shadow=0;direction=north;" vertex="1" parent="IdDyNV-LSEsOb_a6CBgl-1">
          <mxGeometry x="170" y="400" width="52" height="40" as="geometry" />
        </mxCell>
        <mxCell id="TOEvX5oDQGMF_Io_xG3n-39" value="" style="verticalLabelPosition=bottom;html=1;verticalAlign=top;align=center;shape=mxgraph.floorplan.chair;shadow=0;direction=south" vertex="1" parent="IdDyNV-LSEsOb_a6CBgl-1">
          <mxGeometry x="258" y="400" width="52" height="40" as="geometry" />
        </mxCell>
        <mxCell id="TOEvX5oDQGMF_Io_xG3n-40" value="" style="shape=rect;shadow=0;" vertex="1" parent="IdDyNV-LSEsOb_a6CBgl-1">
          <mxGeometry x="190" y="370" width="100" height="100" as="geometry" />
        </mxCell>
        <mxCell id="TOEvX5oDQGMF_Io_xG3n-41" value="" style="verticalLabelPosition=bottom;html=1;verticalAlign=top;align=center;shape=mxgraph.floorplan.chair;shadow=0;" vertex="1" parent="IdDyNV-LSEsOb_a6CBgl-1">
          <mxGeometry x="229" y="112.5" width="40" height="52" as="geometry" />
        </mxCell>
        <mxCell id="TOEvX5oDQGMF_Io_xG3n-42" value="" style="verticalLabelPosition=bottom;html=1;verticalAlign=top;align=center;shape=mxgraph.floorplan.chair;shadow=0;direction=west;" vertex="1" parent="IdDyNV-LSEsOb_a6CBgl-1">
          <mxGeometry x="229" y="200.5" width="40" height="52" as="geometry" />
        </mxCell>
        <mxCell id="TOEvX5oDQGMF_Io_xG3n-43" value="" style="verticalLabelPosition=bottom;html=1;verticalAlign=top;align=center;shape=mxgraph.floorplan.chair;shadow=0;direction=north;" vertex="1" parent="IdDyNV-LSEsOb_a6CBgl-1">
          <mxGeometry x="179" y="162.5" width="52" height="40" as="geometry" />
        </mxCell>
        <mxCell id="TOEvX5oDQGMF_Io_xG3n-44" value="" style="verticalLabelPosition=bottom;html=1;verticalAlign=top;align=center;shape=mxgraph.floorplan.chair;shadow=0;direction=south" vertex="1" parent="IdDyNV-LSEsOb_a6CBgl-1">
          <mxGeometry x="267" y="162.5" width="52" height="40" as="geometry" />
        </mxCell>
        <mxCell id="TOEvX5oDQGMF_Io_xG3n-45" value="" style="shape=rect;shadow=0;" vertex="1" parent="IdDyNV-LSEsOb_a6CBgl-1">
          <mxGeometry x="199" y="132.5" width="100" height="100" as="geometry" />
        </mxCell>
        <mxCell id="TOEvX5oDQGMF_Io_xG3n-49" value="" style="verticalLabelPosition=bottom;html=1;verticalAlign=top;align=center;shape=mxgraph.floorplan.chair;shadow=0;" vertex="1" parent="IdDyNV-LSEsOb_a6CBgl-1">
          <mxGeometry x="48" y="490" width="40" height="52" as="geometry" />
        </mxCell>
        <mxCell id="TOEvX5oDQGMF_Io_xG3n-50" value="" style="verticalLabelPosition=bottom;html=1;verticalAlign=top;align=center;shape=mxgraph.floorplan.chair;shadow=0;rotation=180;" vertex="1" parent="IdDyNV-LSEsOb_a6CBgl-1">
          <mxGeometry x="40" y="588.5" width="40" height="52" as="geometry" />
        </mxCell>
        <mxCell id="TOEvX5oDQGMF_Io_xG3n-51" value="" style="shape=rect;shadow=0;" vertex="1" parent="IdDyNV-LSEsOb_a6CBgl-1">
          <mxGeometry x="10" y="513.5" width="100" height="100" as="geometry" />
        </mxCell>
        <mxCell id="TOEvX5oDQGMF_Io_xG3n-52" value="" style="verticalLabelPosition=bottom;html=1;verticalAlign=top;align=center;shape=mxgraph.floorplan.chair;shadow=0;" vertex="1" parent="IdDyNV-LSEsOb_a6CBgl-1">
          <mxGeometry x="56" y="223" width="40" height="52" as="geometry" />
        </mxCell>
        <mxCell id="TOEvX5oDQGMF_Io_xG3n-53" value="" style="verticalLabelPosition=bottom;html=1;verticalAlign=top;align=center;shape=mxgraph.floorplan.chair;shadow=0;rotation=180;" vertex="1" parent="IdDyNV-LSEsOb_a6CBgl-1">
          <mxGeometry x="48" y="321.5" width="40" height="52" as="geometry" />
        </mxCell>
        <mxCell id="TOEvX5oDQGMF_Io_xG3n-54" value="" style="shape=rect;shadow=0;" vertex="1" parent="IdDyNV-LSEsOb_a6CBgl-1">
          <mxGeometry x="18" y="246.5" width="100" height="100" as="geometry" />
        </mxCell>
        <mxCell id="TOEvX5oDQGMF_Io_xG3n-55" value="" style="verticalLabelPosition=bottom;html=1;verticalAlign=top;align=center;shape=mxgraph.floorplan.chair;shadow=0;" vertex="1" parent="IdDyNV-LSEsOb_a6CBgl-1">
          <mxGeometry x="48" y="12" width="40" height="52" as="geometry" />
        </mxCell>
        <mxCell id="TOEvX5oDQGMF_Io_xG3n-56" value="" style="verticalLabelPosition=bottom;html=1;verticalAlign=top;align=center;shape=mxgraph.floorplan.chair;shadow=0;rotation=180;" vertex="1" parent="IdDyNV-LSEsOb_a6CBgl-1">
          <mxGeometry x="40" y="110.5" width="40" height="52" as="geometry" />
        </mxCell>
        <mxCell id="TOEvX5oDQGMF_Io_xG3n-57" value="" style="shape=rect;shadow=0;" vertex="1" parent="IdDyNV-LSEsOb_a6CBgl-1">
          <mxGeometry x="10" y="35.5" width="100" height="100" as="geometry" />
        </mxCell>
        <mxCell id="TOEvX5oDQGMF_Io_xG3n-61" value="" style="verticalLabelPosition=bottom;html=1;verticalAlign=top;align=center;shape=mxgraph.floorplan.chair;shadow=0;" vertex="1" parent="IdDyNV-LSEsOb_a6CBgl-1">
          <mxGeometry x="48" y="805" width="40" height="52" as="geometry" />
        </mxCell>
        <mxCell id="TOEvX5oDQGMF_Io_xG3n-62" value="" style="verticalLabelPosition=bottom;html=1;verticalAlign=top;align=center;shape=mxgraph.floorplan.chair;shadow=0;rotation=180;" vertex="1" parent="IdDyNV-LSEsOb_a6CBgl-1">
          <mxGeometry x="40" y="903.5" width="40" height="52" as="geometry" />
        </mxCell>
        <mxCell id="TOEvX5oDQGMF_Io_xG3n-63" value="" style="shape=rect;shadow=0;" vertex="1" parent="IdDyNV-LSEsOb_a6CBgl-1">
          <mxGeometry x="10" y="828.5" width="100" height="100" as="geometry" />
        </mxCell>
      </root>
    </mxGraphModel>
  </diagram>
</mxfile>
